<svg xmlns="http://www.w3.org/2000/svg" viewBox="0 0 980.53 640.8"><title>languages-map</title><g id="Calque_2" data-name="Calque 2"><g id="Calque_1-2" data-name="Calque 1"><polygon points="285.3 632.27 283.9 628.74 282.82 626.59 282.82 637.16 282.81 637.16 282.81 626.59 280.81 626.04 278.23 627.95 277.32 631.15 275.87 633.32 272.15 631.62 268.21 628.49 265.9 627.52 269.76 632.77 272.62 635.34 276.15 638.05 279.09 638.76 281.13 640.24 282.79 640.64 284.17 640.8 286.57 639.27 287.5 637.29 285.81 637.16 285.82 637.16 287.51 637.29 288.94 639.02 291.6 638.77 292.88 636.35 288.95 635.14 285.3 632.27" style="fill:#dddddd"/><polygon points="904.71 530.32 904.64 528.55 903.85 526.06 901.66 523.57 900.36 522.4 898.37 520.53 897.89 517.32 897.2 517.78 896.06 516.47 894.94 517.13 893.85 513.88 892.25 512.01 892.62 511.29 890.74 510 888.76 508.59 885.72 507.05 884.81 505.06 885.08 503.54 884.32 501.04 883.61 500.69 883.18 499.24 882.58 496.76 882.87 495.48 881.52 494.35 880.59 493.13 878.79 494.21 877.78 491.96 877.86 490.95 877.65 489.33 876.63 487.88 876.51 486.68 875.81 486.34 875.62 484.56 874.83 483.17 873.79 484.23 873.72 485.04 873.19 486.6 872.51 488.11 872.95 489.06 872.41 489.64 872.04 491.8 872.36 493.44 872.16 494.28 872.55 495.67 871.7 497.97 871.35 499.56 870.78 500.85 870.23 502.42 868.38 503.42 865.7 502.43 865.27 501.53 863.8 500.78 863.01 500.78 860.98 499.06 859.54 498.06 857.38 497.13 855.15 495.53 854.95 494.72 855.95 493.31 856.77 491.88 856.44 490.73 857.4 490.63 858.46 489.47 859.21 487.94 857.92 486.53 857.26 487.08 856.21 486.83 854.57 487.65 852.83 486.77 852.03 487.06 849.67 486.33 848.18 485.16 846.32 484.46 844.83 484.87 846.88 485.81 846.93 487.26 844.57 487.8 843.14 487.46 841.44 488.47 840.22 490.1 840.66 490.81 839.4 491.56 838.06 493.86 838.65 495.44 836.87 495.17 835.12 495.15 833.56 493.44 831.49 492.12 830.13 492.51 828.9 492.92 828.85 493.64 827.62 493.3 827.58 494.1 826.17 494.59 825.49 495.73 823.96 497.15 823.62 499.36 822.38 498.73 821.5 500.14 822.5 501.52 821.31 502.1 820.13 499.59 818.17 502.06 818.1 503.65 817.97 504.82 816.33 506.31 815.61 507.89 814.09 509.2 811.14 510.07 809.59 510 808.85 510.27 808.43 510.92 806.73 511.25 804.52 512.36 803.75 511.99 802.48 512.22 800.34 513.32 798.97 514.6 796.69 515.6 795.51 517.67 795.3 515.38 794.14 517.55 794.44 519.32 794.06 520.84 793.49 521.59 793.19 523.36 793.84 524.28 794.11 525.25 795.5 527.68 795.55 529.27 794.72 528.07 793.33 527.17 794.28 530.05 793.05 528.7 793.44 530.03 795.04 532.51 795.39 534.98 796.63 536.24 796.7 537.17 797.82 539.25 797.7 541.08 798.16 542.93 799.64 546.22 799.95 548.17 799.61 550.47 799.71 551.67 799.23 552.43 797.84 552.89 797.78 554.82 799.29 555.46 802.26 557.63 804.14 557.63 806.19 557.76 807.54 556.68 808.95 555.72 809.77 555.87 811.44 554.07 813.36 553.92 815.38 553.55 817.86 554.16 819.62 553.86 822 553.78 823.04 552.42 823.58 550.67 826.01 549.9 828.98 548.2 831.66 548.42 834.85 547.32 838.48 546.14 843.5 545.83 846.2 547.43 848.17 547.52 851.77 549.52 851.24 550.29 852.72 551.54 854.47 553.97 854.38 555.76 856.57 557.16 857.64 554.47 859.39 553.32 861.67 550.47 861.89 552.94 860.81 554.59 860.39 556.54 858.92 558.42 861.42 557.79 862.79 555.44 863.47 557.96 862.55 559.62 865.25 560.03 866.63 561.43 867.28 563.18 867.8 565.84 869.61 568.02 872.32 569.05 873.92 569.3 875.51 569.86 877.93 570.83 880.39 568.25 881.92 567.58 881.48 569.43 883.2 570.06 885.52 571.64 887.21 570.1 888.5 568.72 891.09 567.27 894.23 567.14 895.84 565.92 895.7 564.81 896.06 562.41 896.77 559.83 897.85 558.12 898.68 555.19 899.62 553.52 900.64 550.93 902.72 549.3 903.96 546.3 904.51 543.96 904.45 542.1 905.21 539.23 905.7 537.75 905.86 534.94 904.52 532.26 904.71 530.32" style="fill:#dddddd"/><polygon points="889.36 578.08 887.17 578.79 885.64 579.3 882.93 578.02 881.1 577.68 881.03 579.38 882.65 582.63 883.03 585.13 884.76 588.41 886.48 588.53 887.06 588.74 889.01 586.07 889.99 587.12 890.28 584.06 891.24 582.76 891.04 578.33 889.36 578.08" style="fill:#dddddd"/><polygon points="258.88 378.55 259.36 376.34 257.14 374.93 257.15 375.29 258.41 376.52 258.36 378.15 258.88 378.55" style="fill:#dddddd"/><polygon points="256.02 380.61 255.41 382.56 256.46 383.45 257.17 385.21 257.86 385.06 257.84 383.28 256.86 380.73 256.02 380.61" style="fill:#dddddd"/><polygon points="255.12 375.47 253.8 375.72 254 376.87 257.06 376.37 256.97 375.56 255.12 375.47" style="fill:#dddddd"/><polygon points="139.07 116.74 144.28 111.69 146.9 111.1 149.06 106.87 149.44 97.1 145.59 99.01 141.29 98.83 135.53 107.02 130.77 116 134.57 118.51 139.07 116.74" style="fill:#dddddd"/><polygon points="145.21 126.13 149.13 128.08 161.8 126.78 155.98 131.55 156.34 134.98 160.6 134.74 167.67 130.16 177.17 128.49 178.88 123.27 178.39 117.7 175.45 117.2 172.95 119.13 171.85 115 170.9 109.3 168 107.88 165.43 112.29 169.44 123.34 164.54 122.49 159.56 115.7 151.67 111.7 149.03 115.02 145.21 126.13" style="fill:#dddddd"/><polygon points="200.13 91.27 202.41 94.39 206.56 91.62 207.32 86.65 203.97 81.73 202.34 80.77 198.71 80.19 198.93 86.09 200.13 91.27" style="fill:#dddddd"/><polygon points="183.06 82.99 180.35 87.18 186.59 87.7 191.2 92.14 195.78 93.64 194.69 87.96 192.55 81.23 184.97 75.88 179.47 73.84 179.67 79.53 183.06 82.99" style="fill:#dddddd"/><polygon points="167.77 84.07 164.12 81.17 162.62 80.51 159.74 84.79 159.69 86.79 164.35 86.8 167.77 84.07" style="fill:#dddddd"/><polygon points="166.31 96.42 167.24 92.43 163.29 90.31 159.2 91.7 156.93 95.96 161.09 100.17 166.31 96.42" style="fill:#dddddd"/><polygon points="199.86 174.29 197.9 177.83 195.43 180.32 199.26 183.86 201.54 183.01 205.32 185.37 207.06 182.64 205.35 179.61 204.51 178.08 202.83 176.62 199.86 174.29" style="fill:#dddddd"/><polygon points="250.65 220.46 248.65 218.35 246.59 218.85 246.34 215.79 243.13 213.75 240.06 211.48 238.43 209.73 237 210.76 236.48 207.8 234.45 207.25 233.49 213.38 233.13 218.49 230.69 221.63 234.49 221.03 235.45 224.68 239.44 221.45 242.22 218.07 243.79 220.93 248.15 222.44 250.65 220.46" style="fill:#dddddd"/><polygon points="239.75 228.34 240.36 229.97 242.34 230.11 245.62 226.77 245.68 225.58 241.83 225.52 239.75 228.34" style="fill:#dddddd"/><polygon points="264.36 195.22 264.68 194.21 264.65 191.04 262.46 188.96 259.89 190.01 258.7 194.18 259.4 197.74 262.54 197.38 264.36 195.22" style="fill:#dddddd"/><polygon points="251.91 233.23 253.01 230.11 252.3 228.88 251.15 228.75 250.07 230.55 249.94 230.96 250.68 232.73 251.91 233.23" style="fill:#dddddd"/><polygon points="319.36 285.9 319.9 284.68 318.6 284.48 316.17 286.03 314.43 288.56 311.53 295.48 309.18 298.04 310.4 299.18 308.65 300.65 309.08 301.88 314.52 302.01 317.53 301.76 320.22 302.77 318.24 304.7 319.91 304.84 323.16 301.26 323.94 301.79 323.33 305.16 325.17 305.93 326.44 305.78 327.62 302.17 326.76 299.57 326.4 297.33 324.44 298.05 325.31 294.94 322.51 293.62 321.22 294.67 318.73 293.49 319.71 291.98 317.83 291.05 316 292.52 317.86 288.7 319.36 285.9" style="fill:#dddddd"/><polygon points="202.94 144.35 202.21 141.47 197.21 142.73 193.87 140.62 190.55 145.42 193.64 151.7 187.92 150.53 187.86 153.54 194.83 160.59 196.77 163.97 199.47 164.7 204.07 161.29 204.57 153.08 200.33 149.01 202.94 144.35" style="fill:#dddddd"/><polygon points="288.18 202.76 292.59 209.36 296.04 212.21 300.96 204.34 301.83 199.41 297.42 198.94 293.39 192.24 288.94 190.6 282.34 185.63 287.49 182 284.84 174.46 282.4 171.11 275.63 167.76 272.71 162.21 267.5 164.2 267.14 160.34 263.28 156.02 257.06 151.31 254.41 155.02 248.86 157.68 249.28 151.62 244.47 141.57 237.36 145.63 234.77 153.33 232.56 147.41 234.62 141.04 227.38 143.69 224.5 147.68 222.35 156.1 223.24 165.15 227.22 165.19 224.29 169.11 226.62 172.07 231.17 173.32 237.1 175.74 247.3 177.56 252.38 176.52 253.88 174.1 256.09 176.89 258.56 177.35 261.53 182.31 259.73 184.29 265.41 186.92 269.7 190.6 270.78 193.15 271.55 196.39 267.92 203.32 266.94 206.76 267.88 209.18 262.11 210.04 256.84 210.16 254.99 215.03 257.36 217.26 265.47 216.23 265.43 214.34 269.51 217.49 273.69 220.77 272.71 222.54 276.11 225.56 282.13 229.09 289.73 231.48 289.27 229.39 286.35 225.72 282.39 220.35 289.42 225.35 292.96 227.01 293.93 222.57 292.11 216.27 290.95 214.54 287.14 211.51 284.19 207.6 284.54 203.66 288.18 202.76" style="fill:#dddddd"/><polygon points="222.35 41.2 224.69 48.49 229.65 54.37 239.46 53.28 245.77 55.25 241.39 61.3 239.18 59.52 231.52 58.81 232.71 67.12 236.67 73.16 235.87 78.36 230.9 81.82 228.63 87.29 233.18 89.94 237 98.49 229.5 92.79 227.79 93.73 229.17 103.11 223.99 105.94 224.34 111.79 229.64 112.42 233.81 113.86 242.05 112.02 249.38 115.29 256.87 108.1 256.81 105.08 252.02 105.56 251.63 102.72 255.55 98.89 256.88 93.74 261.21 89.91 263.87 85.15 261.55 78.05 263.49 75.4 259.63 73.51 268.12 71.88 269.91 68.73 275.69 66.13 280.49 52.66 285.06 47.72 291.68 36.6 285.58 36.7 288.12 32.4 294.9 28.41 301.74 19.51 301.86 13.78 296.73 7.74 290.71 4.81 283.22 2.99 277.15 1.5 271.08 0 262.98 3.98 261.49 1.45 252.92 2.43 247.89 5 244.19 8.65 242.06 20.39 239 14.38 235.52 13.24 231.4 21.21 225.9 24.56 222.63 25.22 218.46 29.06 219.07 35.71 222.35 41.2" style="fill:#dddddd"/><polygon points="182.25 144.84 180.12 142.67 176.36 143.07 175.41 144.45 179.78 151.2 182.25 144.84" style="fill:#dddddd"/><polygon points="210.94 158.01 213.95 151.08 217.29 149.23 221.48 140.49 216.12 138.02 210.28 137.66 207.5 140.43 206.03 144.66 205.99 149.48 207.74 157.67 210.94 158.01" style="fill:#dddddd"/><polygon points="228.09 135.01 233.85 134.83 241.89 133.22 245.48 134.5 249.66 132.24 251.41 129.4 250.78 124.88 247.78 120.65 243.22 119.85 237.51 120.82 233.05 123.26 228.96 122.32 225.18 121.82 223.4 119.12 220.18 116.51 220.82 112.08 218.4 108.1 212.88 108.13 209.77 104.14 203.99 103.34 202.93 108.44 206.18 112.18 211.98 113.63 214.79 118.72 215.13 124.32 216.1 130.31 223.55 133.73 228.09 135.01" style="fill:#dddddd"/><polygon points="130.12 167.91 137.5 163.73 137.5 159.86 140.98 153.45 147.86 146.76 151.38 144.29 148.37 140.09 145.65 137.14 138.49 136.57 134.49 134.41 125.01 136.04 127.75 142.27 125.32 148.7 123.38 155.57 122.18 159.43 128.65 164.12 130.12 167.91" style="fill:#dddddd"/><polygon points="211.25 132.91 212.78 128.77 211.76 125.31 209.31 121.39 205.28 124.41 203.79 129.33 207.19 132.12 211.25 132.91" style="fill:#dddddd"/><polygon points="248.49 145.69 251.57 150.79 252.38 151.36 255.45 150.09 258.47 150.29 261.45 150.57 261.2 147.93 256.36 142.55 249.94 141.47 248.59 142.14 248.49 145.69" style="fill:#dddddd"/><polygon points="195.4 129.66 200.02 128.55 201.3 120.3 201.21 114.35 199.07 108.79 198.85 110.39 194.91 109.69 190.69 113.78 187.67 113.41 187.85 122.33 192.45 121.46 192.39 127.93 195.4 129.66" style="fill:#dddddd"/><polygon points="192.12 175.27 187.06 171.34 182.35 167.13 181.48 160.95 179.72 152.03 176.58 148.19 173.79 146.64 171.32 148.06 173.31 157.65 171.9 161.38 169.61 152.4 167.05 149.29 163.88 154.1 159.98 149.34 153.74 152.21 155.14 147.75 152.27 145.88 144.76 151.72 142.81 155.43 140.46 162.2 145.36 164.52 149.69 164.4 143.19 167.86 144.67 170.99 148.65 171.16 154.64 170.49 160.06 172.45 156.4 173.89 152.45 173.52 148.12 174.93 146.25 175.8 149.7 182.15 152.19 181.27 156.02 183.42 157.54 187.07 162.53 186.34 169.63 185.18 174.89 182.53 178.15 182.05 182.97 184.17 188.04 185.39 188.98 182.53 187.19 179.48 191.79 178.84 192.12 175.27" style="fill:#dddddd"/><polygon points="208.96 72.75 214.09 72.63 211.87 76.63 211.83 81.93 214.84 87.69 220.65 89.46 225.61 88.47 230.79 77.74 234.64 73.29 231.26 68.32 229.05 57.67 224.45 54.48 219.73 50.8 216.15 41.24 209.63 42.18 210.86 46.33 207.99 47.58 206.05 52.9 204.11 60.36 205.89 67.62 208.96 72.75" style="fill:#dddddd"/><polygon points="212.14 98.74 212.47 97.25 210.5 94.8 204.85 94.61 205.6 98.29 210.85 99.12 212.14 98.74" style="fill:#dddddd"/><polygon points="296.75 306.2 295.77 304.22 294.71 305.48 295.41 306.84 298.97 308.55 300.01 308.29 301.39 306.63 298.79 306.74 296.75 306.2" style="fill:#dddddd"/><polygon points="301.88 294.78 299.01 292.98 295.32 291.89 294.35 292.26 296.96 294.3 300.59 295.64 301.95 295.56 301.88 294.78" style="fill:#dddddd"/><polygon points="128.95 298.09 127.79 295.75 124.99 293.98 123.6 291.93 122.65 290.43 120.01 289.97 118.29 289.3 115.35 288.34 115.11 289.36 116.19 291.74 119.08 292.52 119.58 293.75 122.09 295.25 122.93 296.76 127.53 298.68 128.95 298.09" style="fill:#dddddd"/><polygon points="265.07 396.59 266.94 396.21 267.27 395.52 265.15 394.3 263.08 394.18 263.29 393.34 261.61 392.73 260.69 392.77 258.95 391.42 256.57 389.55 255.58 388.85 252.96 389.19 251.84 388.08 249.21 387.05 247.01 387.02 244.58 386.8 243.91 387.13 241.78 387.42 240.35 388.01 239.08 388.68 238.48 389.77 237 390.7 238.2 390.99 239.58 390.66 239.98 389.92 241.15 389.88 243.16 388.32 245.91 388.47 244.86 389.22 245.84 389.81 249.49 390.28 250.33 390.91 252.95 391.71 254.53 391.6 255.2 393.3 256.17 394.16 257.98 394.36 259.12 395.13 257.24 396.79 261.25 396.5 263.18 396.74 265.07 396.59" style="fill:#dddddd"/><polygon points="477.28 328.89 477.53 327.65 481.12 326.87 483.78 324.38 483.63 322.19 480.38 322.68 477.22 320.96 476.2 321.78 471.04 320.05 469.92 318.56 465.39 318.44 463.06 318.64 460.08 317.98 456.31 318.01 452.88 317.31 448.92 320.08 450.06 321.74 449.92 324.42 450.94 323.47 452.08 322.92 452.79 324.76 454.44 324.75 454.92 324.28 456.56 324.41 457.34 326.29 456.04 327.29 456.01 330.17 455.55 330.7 455.44 332.42 454.23 332.72 455.35 334.89 454.58 337.24 455.54 338.3 455.16 339.26 454.12 340.58 454.35 341.74 456.97 342.28 457.77 344.28 458.8 345.45 460.18 345.74 461.25 344.43 463 343.21 465.68 343.27 469.23 343.22 471.22 340.53 473.34 339.83 473.94 337.53 475.56 335.93 474.47 333.88 475.55 330.92 477.28 328.89" style="fill:#dddddd"/><polygon points="309.41 621.42 307.02 620.3 303.66 622.99 305.06 625.04 307.44 622.99 308.7 624.58 312.49 623.22 313.33 621.64 311.09 619.63 309.41 621.42" style="fill:#dddddd"/><polygon points="974.69 502.78 973.42 502.42 972.34 503.42 972.61 504.71 974.16 505.07 975.9 504.67 976.36 503.14 975.4 502.3 974.69 502.78" style="fill:#dddddd"/><polygon points="979.95 498.6 978.31 499.51 977.42 499.67 976.02 500.27 976.38 501.36 978.17 500.75 979.95 500.03 980.18 499.87 980.53 498.47 979.95 498.6" style="fill:#dddddd"/><path d="M479,291.14l-6.53,3.37-2.65-1.85.89,4.84L466,296.41l-3.64.92.28,3.07,4.29,1.6,2.07,2.09,2.89,4.26-.53,7.88-1.45,2.32L471,320l5.16,1.73,1-.82,3.15,1.72,3.25-.49.32-2.29,4.08-1.24,5.53,1,2.54-2.17.32-1.67h0l-.32,1.68,1.17-.28,1.62-1.8,1.29-.53,2.28,1.29,1.4.45.87,3.8,1.91,2.19,2.56,2.45,2.19,1.68,2.07.24,1.21,1.49,1.8.67.83,1.58,1.16.46.86,1.83,1.09,2.09-.61.77-.57,1.91v1.08l1.17-.27,1.5-3.06,1.17-.21.33-1.88-2-1.34,1.18-2.36,2.44.6,1.56,1.7.52-1.31-.29-.68-2.4-1.92-2.06-1.12-2.51-1.35.79-.74-.68-.83-2.2,0-3.12-3-1.41-3.17-2.63-2-.92-2,.34-1.12-.16-2,2.28-1.42,2.23.58-.67-1.71.3-2-4-1-.6-1.39-2.77.71-.33.78-1.7-.58-.22,1.67-1.24.68-2.07-.51-.61,1.63-1.34.13-.49-.64L497,309.16l-1.35.19-1.21-.86-.12,1.13.83,1.5-1,1.21.72,3h0l-.72-3,1-1.21-.83-1.5.12-1.13-1-1.77-.7.33.71-.34,1,1.77,1.21.86,1.35-.19,1.57-1.36.49.64,1.33-.13.61-1.63,2.08.51,1.23-.69.22-1.67-1.43-.11-1.27-.74.43-1-.11-.74-3-1.26-.58.9-2.38,0-.77.71h0l.77-.71.36-3,1.42-2.9-4-.79L492.6,294l.16-1.89-.56-1,.32-3-1.55-1-1.77-2-2.6.93-2.05-.35-2.25.88v0l-2.45.9Zm13.16,14.35,2-2.3-.09-1h0l.09,1-2.05,2.31,0,1.84h0Z" style="fill:#dddddd"/><polygon points="501.13 326.29 502.06 323.4 501.59 320.14 499.78 321.59 499.21 323 499.86 325.53 501.13 326.29" style="fill:#dddddd"/><polygon points="459.61 267.15 461.12 264.81 462.04 266.18 461.02 268.38 461.69 269.7 465.09 270.55 465.13 270.62 467.01 273.57 466.6 276.31 462.43 275.89 461.9 278.95 463.44 281.43 460.51 282.84 461.3 284.64 465.68 285.39 465.7 285.39 463.19 286.36 459.08 291 460.57 291.87 462.54 290.2 465.13 290.7 466.98 288.64 468.29 289.51 473.06 288.3 476.81 288.34 479.33 286.01 478.21 283.68 479.64 282.35 479.98 279.42 476.58 278.54 475.78 276.7 474.05 271.29 472.13 270.52 469.63 264.73 469.41 264.21 466.51 263.89 469.03 259.36 469.76 255.14 466.69 255.11 463.83 255.83 466.83 250.1 463.47 250.51 461.23 250.09 459.05 254.4 458.03 259.76 459.45 262.35 459.61 267.15" style="fill:#dddddd"/><polygon points="326.97 438.16 324.91 437.5 323.96 437.19 322.5 439.6 322.72 441.51 323.81 443.16 323.33 444.36 323.09 445.63 322.38 446.82 323.6 447.39 324.47 446.63 325.1 446.75 325.48 447.53 326.82 447.33 327.89 446.27 328.74 444.21 330.4 441.66 329.94 440.52 326.97 438.16" style="fill:#dddddd"/><polygon points="269.3 401.62 271.01 401.83 272.33 401.63 274.19 402.13 274.34 402.97 275.06 403.43 276.18 401.43 277.11 401 277.53 401.72 278.61 401.54 279.12 401 280.04 401.14 281.32 401.02 282.66 401.66 283.7 400.46 282.32 399.38 281.07 399.27 281.16 398.39 279.63 398.45 279.12 397.4 278.38 397.48 276.72 396.72 274.53 396.7 274.18 397.21 271.75 396.74 270.04 396.61 269.41 397.43 271.18 397.89 271.16 399.02 272.44 400.29 271.43 400.95 269.31 400.71 266.73 400.3 266.48 401.25 267.99 402.17 269.3 401.62" style="fill:#dddddd"/><polygon points="451.25 284.31 456.22 281.63 458.34 277.51 457.88 274.15 459.38 270.86 456.38 267.87 454.03 268.07 454.61 270.67 454.03 273.23 454.02 273.23 454.6 270.66 454.02 268.06 451.9 270.33 448.09 274.08 449.55 278.85 447.28 283.63 451.25 284.31" style="fill:#dddddd"/><polygon points="516.64 338.03 513.78 338.42 510.5 338.1 510.11 339.92 514.02 341.71 515.45 342.09 517.59 343.4 518.18 341.61 517.76 340.52 518.77 337.74 516.64 338.03" style="fill:#dddddd"/><polygon points="498.79 329.99 498.9 334.37 499.96 335.32 501.1 334.12 502.37 334.35 502.76 329.54 501.08 326.92 499.69 328.08 498.15 327.89 498.79 329.99" style="fill:#dddddd"/><polygon points="259.65 401.08 257.76 400.82 257.12 400.72 255.94 400.92 255.61 401.59 257.21 402.66 258.78 403.13 259.63 402.64 261.6 402.59 261.14 401.79 259.65 401.08" style="fill:#dddddd"/><polygon points="590.69 442.32 589.56 441.38 587 442.55 586.17 443.71 584.3 443.49 583.68 443.17 583.02 443.24 582.14 443.22 578.59 440.84 576.64 440.84 575.68 439.93 575.68 438.36 574.22 437.89 572.32 439.73 570.6 441.4 568.87 442.68 566.9 442.68 564.64 443.33 562.86 442.7 561.71 443.47 559.24 441.61 558.57 440.42 557.01 441.01 555.71 440.82 554.96 441.29 553.7 440.96 552.01 438.65 551.08 438.94 549.28 438.88 547.17 438.59 546.13 438.83 545.71 439.51 544.8 439.59 543.7 439 540.57 440.39 539.3 440.11 538.91 440.33 538.07 442.01 535.98 441.47 533.93 441.19 532.15 440.16 529.84 439.21 528.34 440.11 527.24 441.53 526.99 443.48 525.19 443.32 523.29 442.85 521.62 444.33 520.15 446.93 519.85 446.12 519.73 444.85 518.45 443.95 517.41 442.51 517.17 441.51 515.85 440.05 516.07 439.22 515.79 438.04 516.01 435.87 516.68 435.36 518.09 432.52 520.41 432.3 520.93 431.58 521.39 431.64 522.09 432.27 525.62 431.2 526.81 430.1 528.28 429.11 528 428.12 528.79 427.86 531.5 428.04 534.14 426.73 536.16 423.64 537.59 422.5 539.36 422.01 539.39 421.32 538.36 420.49 538.33 418.83 537.75 417.73 536.76 417.9 537.04 416.85 537.77 415.65 537.45 414.47 538.37 413.59 537.79 412.92 538.53 411.14 539.81 409.01 542.23 409.21 542.09 397.6 530.91 391.9 519.72 386.13 516.89 387.79 514.91 388.91 513.33 387.25 508.9 385.94 499.29 391.69 491.17 397.54 487.22 398.86 487.23 405.61 485.69 407.55 485.45 409.34 482.96 409.79 479.14 410.04 478.1 411.07 476.3 411.18 474.51 411.19 473.81 410.64 472.26 411.05 469.64 412.25 469.11 413.15 466.93 414.43 466.55 415.17 465.38 415.75 464.02 415.37 463.25 416.07 462.84 418.03 460.61 420.39 460.68 421.35 459.91 422.56 460.1 424.2 458.94 424.62 458.29 424.98 457.85 423.77 457.04 424.09 456.56 424.03 456.04 424.86 453.88 424.83 453.1 424.41 452.74 424.67 451.88 423.85 452.03 423.01 451.68 422.67 451.08 422.95 451.19 422.03 451.77 421.3 450.62 420.11 450.28 419.32 449.66 418.7 449.1 418.62 448.43 419.02 447.52 419.4 446.75 420.02 445.55 419.79 444.77 419.07 444.31 418.97 443.58 419.35 443.13 419.36 442.97 418.31 443.1 417.42 442.86 416.32 441.81 415.51 441.26 413.87 441.13 412.08 439.28 410.1 437.58 407.97 435.72 407.2 434.38 406.35 432.81 406.38 431.45 407.01 430.05 406.76 429.09 407.69 428.43 409.18 427.07 411.21 425.83 411.76 427.23 412.78 428.39 415.02 428.03 416.29 428.49 418.48 428.67 419.09 429.52 419.69 429.51 420.12 430.15 420.93 431.33 421.11 432.83 422.3 433.65 422.77 434.06 423.39 434.37 424.64 435.07 425.21 435.79 425.57 436.88 426.68 438.11 428.35 438.46 430.43 438.95 431.46 440.41 432.96 442.42 434.09 443.18 434.3 445.07 436.11 447.46 437.64 450 439.77 452.89 441.1 453.63 441.08 454.17 441.15 456.95 440.13 458.89 439.32 462.22 438.83 464.01 438.8 465.97 439.35 467.24 439.32 469.74 440.11 472.27 439.3 473.83 438.34 478.23 436.7 480.48 436.11 482.8 435.78 485.27 435.78 487.38 435.75 489.37 437.59 490.29 439.61 491.79 441.36 494.03 441.42 495.11 440.8 496.18 440.94 499.09 439.94 499.05 440.71 499.77 441.11 500.34 442.36 501.62 442.84 502.72 444.68 502.31 446.88 506.87 446.95 506.89 450.3 502.82 450.27 501.87 450.43 501.3 452.5 500.62 454.52 500.01 455.42 499.92 456.34 501.62 459.22 503.48 461.52 506.36 464.34 508.66 467.29 509.79 466.09 510.64 465.62 511.69 466.58 510.67 467.16 510.21 467.88 510.12 469.1 509.41 469.4 509.8 470.27 510.96 469.89 511.77 469.94 512.76 469.61 521.03 469.64 521.72 471.73 522.53 473.41 523.17 474.32 524.24 475.79 526.1 475.57 527.02 475.17 528.57 475.57 528.99 474.86 529.7 473.23 531.44 473.12 531.59 472.63 533.02 472.62 532.77 473.63 536.18 473.61 536.23 475.37 536.79 476.46 536.38 478.16 536.59 479.89 537.52 480.94 537.37 484.31 538.07 484.05 539.29 484.12 541.02 483.7 542.3 483.87 542.6 484.75 542.28 486.13 542.77 487.46 542.35 488.53 542.59 489.52 536.75 489.48 536.62 498.64 538.51 501.02 540.34 502.84 542.64 502.17 544.46 502.34 545.56 503 545.59 503.24 544.01 503.9 543.15 503.91 541.37 505.06 540.29 503.85 535.97 504.88 533.88 504.97 533.8 515.54 531.04 515.65 531.04 524.51 531.79 524.97 533.46 527.9 533.2 529.8 533.82 530.89 535.83 530.57 537.23 529.18 538.56 528.25 539.25 526.77 540.62 526.05 541.8 526.43 543.14 527.29 545.42 527.44 547.21 526.72 547.5 525.76 547.99 524.29 549.52 524.04 550.36 522.89 551.29 520.86 553.81 518.6 557.78 516.38 558.92 516.41 560.27 516.92 561.22 516.56 562.71 516.86 565.66 513.45 566.4 511.3 566.83 511.03 567.14 509.29 566.69 508.41 566.81 506.21 567.36 504.17 567.35 500.48 565.9 499.54 564.56 499.33 563.96 498.61 562.66 498 560.32 498.06 560.14 496.98 559.87 494.93 568.38 492.55 566.91 491.81 567.76 489.15 568.64 488.16 568.1 485.8 568.66 483.5 569.14 482.73 568.43 480.33 567.11 479.07 565.51 478.22 563.73 477.75 562.61 477.27 561.44 476.56 559.93 473.01 558.3 471.44 557.74 469.82 558.02 468.36 557.52 465.79 557.34 462.42 556.63 461.16 556.89 459.63 557.28 459.42 557.38 457.76 558.19 456.98 558.87 457.27 560.54 456.41 561.53 456.07 564.6 456.11 570.31 455.89 570.79 456.2 580.95 461.87 581.15 463.49 585.17 466.28 586.3 465.36 586.85 463.5 587.75 462.38 588.14 460.41 589.2 460.21 589.89 459.05 591.85 457.93 590.19 455.64 590.16 445.49 592.61 442.32 590.69 442.32" style="fill:#dddddd"/><polygon points="972.77 567.79 970.88 567.51 968.62 566.36 968.2 563.71 966.93 562.76 966.87 565.14 964.84 561.47 964.05 558.43 961.87 557.54 960.34 555.65 959.3 555.92 960.47 558.33 962.68 561.37 964.02 562.8 963.94 563.41 965.08 565.75 965.21 568.03 964.74 570.77 962.71 572.02 962.63 573.33 965.65 574.78 966.57 576.79 964.95 579.83 966.12 580.37 966.6 581.35 968.77 579.86 970.16 577.33 971.22 575.36 971.63 574.68 971.37 573.12 972.12 572.02 974.26 572.09 975.11 570 975.79 566.85 974.37 566.44 972.77 567.79" style="fill:#dddddd"/><polygon points="961.02 580.02 960.38 578.49 959.77 576.93 957.8 578.63 957.38 580.7 956.32 581.65 955.07 584.46 953.39 586.44 950.99 588.45 948.98 589.92 947.17 590.65 943.64 594.52 942.13 597.48 942.6 598.96 945.65 599.24 947.47 600.58 950.05 600.67 951.45 599.51 953.65 597.71 955.24 593.68 955.99 591.11 958.39 589.65 960.55 589.6 959.52 587.74 960.95 586.2 962.78 583.4 963.82 581.66 963.82 580.09 963.01 578.52 961.02 580.02" style="fill:#dddddd"/><polygon points="870.7 478.76 873.6 478.88 875.17 479.35 877.37 478.38 877.01 476.3 878.72 475.37 881.1 474.57 884.76 475.8 886.22 478.26 887.81 479.81 889.99 481.61 892.82 482.04 895.23 482.36 895.92 483.09 897.78 482.89 898.09 482.07 895.11 480.88 895.95 480.35 893.78 479.87 893.89 478.62 892.28 478.71 890.46 475.72 887.96 473.88 887.34 472.03 889.92 471.73 889.24 470.24 884.57 468.51 884.14 466.86 882.58 465.45 880.65 464.02 875.47 462.42 870.6 460.5 870.65 469.6 870.7 478.76" style="fill:#dddddd"/><polygon points="901.3 462.89 902.57 463.8 903.22 464.88 903.75 466.53 904.63 465.79 904.29 464.33 903.22 463.44 902.1 462.27 900.92 461.6 899.97 460.99 898.46 460.21 897.68 460.88 899.7 461.7 901.3 462.89" style="fill:#dddddd"/><polygon points="895.02 470.89 896.51 470.89 897.95 470.23 899.48 469.55 899.92 468.76 901.39 468.53 902.32 466.84 902.38 465.29 901.81 464.83 900.13 464.88 900.44 466.53 898.87 467.53 898.08 468.49 896.48 468.7 896.21 467.21 895.81 467.28 895.39 468.62 893.86 468.84 891.35 468.43 891.12 469.3 892.72 470.08 895.02 470.89" style="fill:#dddddd"/><polygon points="910.03 468.76 909.18 468.13 908.88 467.3 908.49 467.57 909.09 469.7 910.32 471.48 911.53 472.56 912.32 472.28 912.71 471.48 911.39 470.53 910.03 468.76" style="fill:#dddddd"/><polygon points="287.11 400.73 286.72 401.16 286.88 402.41 288.52 402.31 290.63 402.33 291.35 401.59 290.84 401.01 289.41 400.75 287.11 400.73" style="fill:#dddddd"/><polygon points="914.17 471.67 914.03 472.14 915.18 473.29 916.41 473.93 916.97 473.77 915.84 472.85 914.17 471.67" style="fill:#dddddd"/><polygon points="928.16 480.63 928.58 480.11 927.46 478.75 926.45 476.5 925.5 476.5 926.08 478.18 928.16 480.63" style="fill:#dddddd"/><polygon points="929.23 482.51 927.56 481.82 928.63 483.56 930.59 483.58 929.81 482.61 929.23 482.51" style="fill:#dddddd"/><polygon points="924.89 479.53 923.04 479.09 922.86 480.21 923.45 480.65 925.17 480.94 926.26 480.88 925.8 480.12 924.89 479.53" style="fill:#dddddd"/><polygon points="923.52 476.55 922.86 475.65 920.56 474.36 919.27 473.69 918.85 473.98 919.9 474.92 921.44 475.93 923.64 477.12 923.52 476.55" style="fill:#dddddd"/><polygon points="302.06 425.25 304.4 424.94 304.51 422.83 303.92 422.73 302.31 423.1 302.37 424.22 301.55 425 302.06 425.25" style="fill:#dddddd"/><polygon points="37.13 393.63 36.13 393.35 35.86 393.61 35.88 393.8 36.2 394.04 36.68 394.67 37.62 394.46 37.85 394.1 37.13 393.63" style="fill:#dddddd"/><polygon points="34.14 393.09 35.64 393.18 35.73 392.86 34.35 392.73 34.14 393.09" style="fill:#dddddd"/><polygon points="0 225.08 2.04 223.82 2.27 223.14 0 222.47 0 225.08" style="fill:#dddddd"/><polygon points="27.77 389.68 27.34 389.98 27.19 390.2 28.13 390.75 28.46 390.45 28.4 389.75 27.77 389.68" style="fill:#dddddd"/><polygon points="8.5 240.45 5.73 241.42 7.43 242.94 9.27 243.98 10.99 243.11 10.72 240.96 8.5 240.45" style="fill:#dddddd"/><polygon points="32.17 391.24 31.42 391.65 31.53 391.77 31.89 392.45 32.87 392.56 33.07 392.6 33.22 392.43 32.41 391.44 32.17 391.24" style="fill:#dddddd"/><polygon points="40.03 396.38 39.53 396.12 38.46 395.62 38.25 395.56 38.09 395.84 38.28 396.42 37.79 396.9 37.65 397.23 38.11 398.31 38.03 399.14 38.73 399.56 39.14 399.07 40.04 398.61 41.14 397.98 41.21 397.82 40.5 396.78 40.03 396.38" style="fill:#dddddd"/><polygon points="45.62 253.65 44.12 254.45 41.57 256.31 42 258.73 43.43 260.05 46.23 258.1 48.66 255.63 47.47 254 45.62 253.65" style="fill:#dddddd"/><polygon points="105.85 272.95 103.16 273.33 101.84 272.71 101.67 274.23 102.19 276.3 103.61 277.76 104.65 279.89 106.34 281.99 107.46 282 105.02 278.3 105.85 272.95" style="fill:#dddddd"/><path d="M326.06,549.87l-1.62-2.25-2.2-1.82-2.89-2.08-1,.09-2.81-2.5-1.82.34v0l3.74-4.37,3.16-3.08,1.88-1.28,2.36-1.73.06-2.49-1.41-1.79-1.38.59.54-1.76.38-1.82v-1.68l-1-.55-1,.49-1-.13-.33-1.18-.26-2.77-.53-.9-1.89-.82-1.14.59-3-.58.18-4.06-.83-1.66L313,510l-.27-1.69.77-1.29.5-2.32-.67-1.82-1.53-.82-.3-1.15.41-1.68-5.37-.12-1.08-3.37.82,0,0-1.25-.55-.84-.12-1.66-1.63-.85-1.76,0-1.16-.83-1.9-.57-1.1-1.07-3.14-.47-3-2.55.23-1.9-.34-1.09.29-2.12-3.67.48-1.47,1.06-2.45,1.15-.63.85-1.44.07-2.09-.24-1.58.49-1.28-.33.19-4.3-2.3,1.66-2.47-.07-1.06-1.51-1.86-.16.59-1.21L269,476.79l-1.17-2.53.74-.51v-1.19l1.7-.81-.28-1.51.71-1,.21-1.3,3.2-1.91,2.3-.53.37-.42,2.53.13,1.26-7.65.07-1.21-.44-1.59-1.24-1v-2l1.58-.46.56.29.09-1.07-1.64-.29,0-1.74,5.46.06.93-1,.78.88.54,1.65.53-.35,1.55,1.48,2.18-.18.54-.86,2.08-.65,1.16-.45.32-1.18,2-.8-.16-.58-2.37-.24-.39-1.76.11-1.87-1.25-.72.52-.26,2.08.36,2.23.7.81-.66,2-.44,3.14-1,1-1.07-.38-.79,1.46-.12.66.64-.37,1.23,1,.42.65,1.3-.78,1-.45,2.38.72,1.41.2,1.29,1.73,1.3,1.38.14.31-.54.88-.12,1.27-.49.91-.74L316,448l.68-.1L315,445.53l-.37-1.57h-.89l-1.25-2,.52-1.45-.15-.65,1.7-.73.45-2.52-1.11-1-1.5-1.36-1.06-.07-.07-1.45-1.74-1.83-1.84-1-1.1-.67-1.46.07-.45-2.26-2.12-1.39-2.25-.21-1-1.34,2.38-.84-3.36,0-3.48.17,0,.72-1.57.88-2.14-.35-1.61-1.27-3,.29-2.51,0-.11-.94-1.82-1.58-2,0-1-2-1,.9.39,1.34-3.49,1.16.14,2.14.87,1-.63,2-1.21.18-1.06-2.24L274.4,424l0-1.49-.92-1.29,1.65-.33.08-.67.54-1-.73-.75-1-.17-1.35,1.37-1.09.64-2.21,1.43-2.2-.23-.22.59-1.76,0-1.61,1.32-.52,2.39,0,.93-1.15.3-2.11,2-1.44-.09-1.06-.78-.91-.84-1.25-.49-1.57-.1.11-.28-1.55-.16-1,.84-1.7.57-1.19.71-1.38.21-.77-.7-.27.23-1.12-.12.06-.6-1-1-1.32-1.21-1.08-1.14-.72-1.54-.42-.47-.14-.76.58-.73-.19-.75.26-1.22.43-.28-.07-1.29-.16-.73.1-1.27.3-1.15.64-1-.28-1,.14-.64.24-.28-.74-.8-1-.44-.81-.65-.85-.54-.45-.06-1.28-.4-.56.25-.73.07-.67-.2-.89-.15-.33.32-.9.32-1.3.08-1.3-.26-.44.14-.26-.23-.8,0-.62.51-.29-.12-.82-.37-.24.44-.92-.53.56-1,.51-.09.55-.78.32-1.47-.17-.27.29-1-.25-.45.46-1.27,0-.8h-.53v-.43l.59,0,.71.75.7-2.29.42-1.28-.51-.51.66-1.81,1.51-1.77.09-1.44-.67-.63-1.7.25-2.48-.1-3,.69-1.89.79-.49.87-.23,2.49-.67,1.73-1.78,1.2-1.77.51-2.1.53L213,401l-2.46.82-1.16-1.22-3-.79-1.1-1.45-.65-1.69-1.86-2.21-.56-2.31-.87-1.47-.49-1.64.27-1.47.21-4.08.49-2.21,1.06-2.62h.06l0-.07h0l-.49-1-.14-1.5,0-2.16.65-1.42,1.53-1.51,2.79-1.37,2.55-2.37,2.36-.75,1.74-.23,2,.74,2.45-.4,2.09,1.69,2,.1,1-.61,1,.47.53-.42-.6-.63,0-1.3-.5-.86,1.16-.5,2.14-.22,2.49.36,3.17-.41,1.76.8,1.36,1.5.5.16,2.83-1.46,1.09.49,2.19,2.68.79,1.75-.58,2.1.42,1.23,1.3,2.4,1.49,2.68,1.07.71.44,1.35,1.38.37.84-.39.7-1.89.12-1.21.09-2.1-1.33-3.65,0-1.37-1.25-2.25-.94-2.75-.5-2.25.43-2.31,1.32-1.94,1.58-1.57,3.08-2.16.4-1.12,1.42-1.23,1.4-.22,1.84-2,2.9-1,1.78-2.53-.39-3.46-.29-1.21-.8-.24-.12-3.35-1.93-1.14,1.85.56-.6-2.26.54-1.55.33,3,1.43,1.36-.87,2.4.26.14,1.58-2.81.9-1.38,0-1.35-.7-.64-.58-1.94.92.9.62.19.21.92,2-2.78.61-2.62-.83-.17.85-1-.08.45h1.79l3.93-1.11-.83-.7-4.12.7,2.34-1.07,1.63-.18,1.22-.19,2.07-.65,1.35.07,1.89-.61.22-1.07-.84-.84.29,1.37-1.16-.09-.93-2,0-2,.48-.86,1.48-2.28,3-1.15,2.88-1.34,3-1.9L287,311.9l-1.83-2.25,0-5.56-1.25-1.19.09,0,1.25,1.19v5.52l1.83,2.25,3.12-.48,4.49-.13-4.87,3.26.11,3.29,2.13.28,3.13-2.79,2.78-1.58,6.21-2.35,3.47-2.62-1.81-1.46-.29-2.92-2.81,4.56-4.63.58-3.64-2-.92-3.07-.89-4.46,2.65-2.83L292.85,295l-4.19.43L282.78,299l-4.5,5.45-2.38.67,3.23-3.8,4-5.57,3.57-1.9,2.35-3.11,2.9-.3,4.21,0,6,.92,4.74-.71,3.53-3.62,4.62-1.59,2-1.58,2-1.71-.2-5.19-1.13-1.77-2.18-.63-1.11-4-1.8-1.55-4.47-1.26-2.52-2.82L302,262l1.13-3.2-3.1-6.26-3.65-6.89-2.18-5-1.86,2.61-2.68,6.05-4.06,3-2-3.16-2.56-.85-.93-7,.08-4.8-5-.44-.85-2.27-3.45-3.44-2.61-2-2.32,1.58-2.88-.58-4.81-1.65-2,1.4.94,9.18,1.22,5.12-3.31,5.75,3.41,4,1.9,4.44.23,3.42-1.55,3.5L256,268l-4.49,2.28,2,2.53,1.46,7.4-1.52,4.68-2.16,1.46L247,282.07l-2-5.17-.87-4.76.46-4.19-3-.47-4.63-.28-3-2.08-3.51-1.37-2-2.38-2.8-1.94-5.21-2.23-3.92,1-1.31-4-1.26-5-4.12-.9L210,242l1.09-4.48,3-6.6,3.43-4.9,3.26-.77.19-4,2.21-2.68,4-.42,3.25-4.39.82-2.9L234,205l.84-3.5,2.9,2.11,3.9-1.08,5.49-5,.36-3.54-2-4,2.09-4.06-.17-3.87-3.76-4L239.5,177l-4-.62-.15,8.71-2,6.56L230.4,197l-2.71-5,.84-5.61-3.35-5-3.75,6.09v-8l-5.21-1.63,2.49-4-3.81-9.59-2.84-3.91-3.7-1.44L205,165.35l-.22,9.34L208.1,178l3,4.91-1.27,7.71-2.26-.2-1.78,5.88,0-7-4.34-2.58L199,188l.32,4.67-4.09-.18-4.35,1.17-5-3.35-3.13.6L180,186.83,177.7,185l-2.24.77-3.41.35-1.81,2.61,2.86,3.19-3,3.72-3-4.42-2.39,1.3-7.57.87L152,191.79,156,188l-3.78-3.9-2.75.5-3.86-1.32L139,180.44l-4.29-3.37-3.4-.47L130.27,179l-3.44,1.31-.38-6.15-3.73,5.5L118,172.3l-1.94-.89-.63,3.91-2.09,1.9-1.93-3.39-4.59,2.05-4.2,3.55-4.17-1L95,181l-2.46,3.28-2.92-.72-4.41-3.8L80,177.77l0,27.65v35.43l2.76.17,2.73,1.56,2,2.44,2.49,3.6,2.73-3,2.81-1.79L97,246.63l1.89,2.23,2.57,2.42,1.75,3.79L106,261l4.77,3.2.08,3.12,0,.05-.08-3.1L106,261l-2.87-5.88-1.75-3.79-2.57-2.42-1.89-2.23-1.49-2.85-2.81,1.79-2.73,3-2.49-3.6-2-2.44-2.73-1.56L80,240.92V205.49l0-27.65-3-1.13-4.25-2.46L69,175.59l-2.16-1.07-5.39-.78-5.91-2.64-2.86.84-4.29-1.43.17-2L43.77,168l-1.25,1.65-2-3.87L36.25,164l-4.31,4.61L29.36,168,24,171.8l-2.73,1-2.86,3.91-.67,3.92-3.54,3.58-5,.25-1.57,4,3.85,2.38L14.25,194l2,3.64,3.45,2.72L22,204.69,16,205l.38-3.48H14.12l-6.25,3.41-3.94,2.87,3.55,3.91,1.18,2.65,4.11,1.56,4-.73L19,216.58l.85-1.43,3-1.43,1.72-.07-2.08,2.52L24,217.33l.52,2.92-2.14,2-2-.54-2.26,3-1.92-1-2.27.45-1,3.15-2.29,3.37-1.08,3.41,2.16,2.48v3.25l1.92,1.36L16,243.79l3.65-1.07,1.81,2-.51,2,.24,3.23h1.72l2.8-2.17,1,2.7.76-1.94,1.83,2.73,1.52-1.95.9.93L35,248.61l-1.43,3.17-.48,4L31,257.61l-.63,1-3.89,3-1.38,2.06-3.48.56-3,2.71-2.74,1.51-3.07,2.27.44.81,4.81-1.38,2.33-1.63,2.85-1.67,2.62-1.38,1.92.38,3.28-2.13.89-2.36,4.38-2.63.69-2.29,2.81-1.59,3-2.21,2.65-3.85-2-2.65,4-4,1.91-3.77L53,235.28l.77,1.46-3,1.77L49.49,244l.4,3.24L53,246.12l2.47-1.86,3.24-1.16,1.55-.36-.58-3.93,3.11-1.21L66.12,240l5.51,2.59,3.88-.48,4.9,2,2.68,1,5.8,5.64,3.29,1.54,4.46.13,2.69.34,1.51,4.94,3.61,4.13.79,4.36,2.47,1.57,1.54,1.83,1.16-1.68-1.09,1.64.06,2.48,3.39,3.45.49,3.76,3.59,2-.4,2.79,1.56,4,5.08,1.82,2,1.89,5.43,4.23h77.9v.09H130.81l1,3.47.45,3.41-.69,1.09L130,300.12,126,298.7l-.34.82.82,1.94.89,3.53.51,5.42-.34,3.59-.34,3.54-1.1,3.61.9,2.9.1,3.2-.61,3,1.49,2,.39,3,2.17,3,1.24,1.17-.1.82,2.34,4.85,2.72,3.45.34,1.87.71.55,2.6.33,1,.91,1.57.17.31,1,1.31.4,1.82,1.92.47,1.7h0l1.11,2.89,1.3,2.61,1,2.12,1,2,1.64.89,2.16,2.27-.11,1.43-1,1.18-1.15-.18-.2.24,1.65,1.83,1.73.75.7.82.37-.4,1.93,1.39,1.34,1,.42,1.68-.09,2.25,1.44.78,2,1.48,1.83,1.73.74,1.85h.5l1.18-1.11.07-.54-1-1.36-1.13-1.39-1.35-.1-.15-1.62-.78-1.44-.83-1.35-.93-2.89-1.77-1.6-.59-1.11-.85-.8-.57-2-.5,0-.36-1.1-.43-.22-.46-.75-2.08-2.21-1-1.33-.27-2.43L153,361l.45-1.33,1.6.9.93-.14,2,1.29,0,1.25,1,2.48,1.51,2.42.12,1,1.32,1.55,1.62,1.66,1.51.26.7,2.19,1.66,1.52,1.43.73-.43,1.92.51.76,2.41,1.26,1.36,1.91,2.82,2.39,2.47,3,.94,1.52.26,1.2.94,1.34v1l-.65.77.29.85-.93.29.67,1.45,1.4,1.87,3,1.67L185,401.4l2.87.93,1.57.17.71.78,2.34,1.4,3.18,1.35,2.1.41,2.62,1.33,2.1.56,2,.76,1.41-.29,2.26-1.09,1.56-.21,2.29.76,1.45.94,3.17,3.11,1.51,1.18,1.28.57,1.75,0,1.44.5.79.62,1.56.18,1.16.57,1,.27,1.62,0,.31-.67.86.25.48.89-.21.21-.47-.43-.31.44,1.41,1.29,1.18.89.62,1,1.31,1.15,1,.9-.64.54.79.4-.37.9,0,.86.38.57.9.28.64.78.56-.67L237,425l.74.51.18.83,1,.36,1.1.55.78.68.1.62-.32.49.57.59,1.52.63.32.42.09-.61h1.2l.73.33,1.15.18.56,1.14.93.16.36-.48.49,1.68,1.3-.14.41-.42.76-.36-1.33-1.52.27-.59.61-.1,1.14-.7.56-1,1.23-.18,1.4.78.52.93.71.19-.69.75.6,1.52.93.81,1.14,1.5.44,2.37-.6.73.63,2.56-.53,1.62,1,.67L257.93,444l-1.19,1.75-1.39.19-.65,1,.12,1.39-1,.21.38.87-1.92,1.11-1.54.6.2,1.13-1.06,1.8-.52,1.73-1,.42.47,2.53-.57.78,1.68,1.23,1.07-1.3.61,1.22-1.49,2.08-2.24,1.77-.87,2,1.36,2.67-.91,1.25,2,1.13,2.18,1.84.88,2.06,1.15,1.29,2.64,5.62,2.77,5.24,2.37,3.75-.46.83,1.16,2.37,2.17,1.78,5,3.17,5.55,2.92.25,1.2,2.81,1.68,1.44-.74-1.44.75.58,4.15.21,4.87-.88,6.75-.9,6.37-.51,6-1.64,3.87.34,4-.84,2.67.65,4.91-1.19,5-1.94,5.43-1.72,5.6-1.18.11.23,4,.81,3.5-1.29,2.48-1,6.84-.88,5.42,1.77.54.88-4.75,1.88,1-1.46,8-3.12-1.37-1,6.56-2.67,3.57,4.26,1.19-3,3.19-1.19,4,.36,7.34,1.41,2.94-.79,2.62.88,2.87,3.49,2.63,3.21,3.25L275,632.3l1.19-.11.45-4.38,2.53-1.67,1.35-1.13,2.49,0h0l1.18.23-1.87-2.63-.91-4.64L282.6,616l2.56-1.72,1.82-5,3.31-2.38,1-3.73-2.68-.83-2.76-3,.8-3,2.2-2h2.65l.66-2.11.41-3.91,2.25-2.38,2.58-1.18-.84-2L295,583.87l-1.89-1.14L292.7,579l1.08-1,2.7,1.35,2.87-.51,1.68-1.3-.52-1.85.57-2.72-.59-2.15,3.08.36,5.62-.75,4.16-1.91L316,564l.14-1.7-1.75-1.51.38-2.37-3.56-2.91.19-1.74,1.7,1.86,1.9-.11,2.59,1.46,1.52-.37,2.07.68,3.17-1.88,1.21-2.12-.78-1.9ZM281.21,302.49l.93,1.08-.09,0-.89-1Zm-6.09,8.89.84-.19,0,0-.81.18Zm-9.71,1,4.26,0h5.09v0h-5.17l-4.22,0Zm-12.88,5.32.85-.46,2-.56,2.37-.53,1.24.73.78-.85.89-.54.6.29v0l-.07.07.29.54.17,1.51-2.1,1.27-2.3-.32-2.2-.14-1.24.41-.13,0-.86.2-1.12-.36Zm-44-23.38.95,0,.5,2.35.87.72,2,.26,2.86.67,2.72,1.3,2.27-.55,3.45,1.09,1.14-1.66,1.59-.66.62-1,.63-.55,2.61.86,1.93.1.67.57.94,2.38,3.15.63-.49,1.18,1.11,1.21-.48,1.56,1.18.51-.59,1.37.75.13.53-.6.55.9,2.1.5,2.13,0,2.27.41,2.51.78.91,1.26,1.82,3-.9,1.3-2.28-.54-1.42-2.44.36,2.49-1.34,2.17.15,1.84L246,319l-1.81,1.27-1.32,2.09-.62,1.32,1.54.24,2.08-1.2,1.23-1.06.83-.17,1.54.38.75-.59,1.37-.48,2.35-.45h0l0,.37L251.59,323l-2.11,1.09-1.44.51-1.66,1-2,.5-1.4-.19-1.73-.77,1-1.45.62-1.32,1.32-2.09-.14-1.57-.5-2.24-1-.39-1.74,1.7-.56,0-.14-1,1.54-1.56.26-1.79-.23-1.79-2.08-1.55-2.38-.8-.39,1.52-.62.4-.5,2-.26-1.33-1.12,1-.7,1.32-.73,1.92-.14,1.64.93,2.38-.08,2.51-1.14,1.84-.57.52-.76.41-1,0-.26-.25-.76-2,0-1,.08-.94-.35-1.87.53-2.18.63-2.71,1.46-3H231L228.91,314l-.38-.46,1.1-1.42,1.67-2.57,1.91-.36,2.19-.8,2.21.42.09,0,2.47-.36-1.4-1.61-.75-.13-.86-.16-.59-1.14-2.75.36-2.49.9-2-1.55-1.59-.52.9-2.17-2.48,1.37-2.25,1.33-2.16,1-1.72-1.4-2.81.85V305l1.9-1.73,2-1.65,2.86-1.37-3.45-1.09-2.27.55-2.72-1.3-2.86-.67-2-.26-.87-.72-.5-2.35-.86,0Zm-55.15,63h0l.23-.57h0Zm43.46,18.26-.6-2.12h0l.61,2.14Zm86.51,132.81h0l-.88,2.87,1.5,3.34-1.51-3.34ZM281.51,505l.37,2.12h0L281.5,505l-1.37-2Zm-7.89,118.72-1.16-2.63,0-3.31h0l0,3.33,1.16,2.62Zm13.52-105.39.34.76-1,3.16-3.05,1.51.09,5.14-.59,1,.84,1.23-2,1.95L280,536l-1,2.9.27,3.11-1.73,3.34,1.29,5.69.73.61v3.09l-1.6,3.31L278,561l-2.12,2.26v3.22l.85,3.46-1.68,1.3-.75,3.22-.66,3.75.47,4.54-1.13.77.65,4.4,1.27,1.46L274,591l1.3.78.3,1.48-1.22.75.3,2.33-1,5.35-1.49,3.52.33,2.11L271.6,610l-2.15,1.88.25,4.6,1,1.58h0l-1-1.6-.25-4.6,2.15-1.88.89-2.68-.33-2.11,1.49-3.52,1-5.35-.3-2.33,1.22-.75-.3-1.48-1.3-.78.92-1.63-1.27-1.46-.65-4.4,1.13-.77-.47-4.54.66-3.75.75-3.22,1.68-1.3-.85-3.46v-3.22L278,561l-.06-2.87,1.6-3.31v-3.09l-.73-.61-1.29-5.69,1.73-3.34-.27-3.11,1-2.9,1.84-3,2-2-.84-1.23.59-1-.09-5.14,3-1.51,1-3.16-.34-.76h0l2.33-2.72h0Zm23.77,13.47h0l2.76-4.73v0Z" style="fill:#dddddd"/></g></g></svg>
